{
  "title": "Game of Thrones S06E08 720p HDTV x264-AVS",
  "uid": 14898142,
  "size": 1305071579,
  "categoryP": "video",
  "categoryS": "hd___tv_shows",
  "magnet": "?xt=urn:btih:18523df9d2e670ba0bcbe074cf0510bfa08d2c59&amp;dn=Game+of+Thrones+S06E08+720p+HDTV+x264-AVS&amp;tr=udp%3A%2F%2Ftracker.leechers-paradise.org%3A6969&amp;tr=udp%3A%2F%2Fzer0day.ch%3A1337&amp;tr=udp%3A%2F%2Fopen.demonii.com%3A1337&amp;tr=udp%3A%2F%2Ftracker.coppersurfer.tk%3A6969&amp;tr=udp%3A%2F%2Fexodus.desync.com%3A6969",
  "seeders": 128,
  "leechers": 7,
  "uploader": "Uplaoderking",
  "files": 3,
  "time": 1465790930,
  "description": "Video\r\nID : 1\r\nFormat : AVC\r\nFormat/Info : Advanced Video Codec\r\nFormat profile :   \r\nFormat settings, CABAC : Yes\r\nFormat settings, ReFrames : 5 frames\r\nCodec ID : V_MPEG4/ISO/AVC\r\nDuration : 58mn 13s\r\nBit rate : 2 545 Kbps\r\nWidth : 1 280 pixels\r\nHeight : 716 pixels\r\nDisplay aspect ratio : 16:9\r\nFrame rate mode : Constant\r\nFrame rate : 23.976 (24000/1001) fps\r\nColor space : YUV\r\nChroma subsampling : 4:2:0\r\nBit depth : 8 bits\r\nScan type : Progressive\r\nBits/(Pixel*Frame) : 0.116\r\nStream size : 1.04 GiB (85%)\r\nWriting library : x264 core 148 r2692 64f4e24\r\nEncoding settings : cabac=1 / ref=5 / deblock=1:0:0 / analyse=0x3:0x113 / me=umh / subme=8 / psy=1 / psy_rd=1.00:0.00 / mixed_ref=1 / me_range=16 / chroma_me=1 / trellis=1 / 8x8dct=1 / cqm=0 / deadzone=21,11 / fast_pskip=1 / chroma_qp_offset=-2 / threads=22 / lookahead_threads=3 / sliced_threads=0 / nr=0 / decimate=1 / interlaced=0 / bluray_compat=0 / constrained_intra=0 / bframes=3 / b_pyramid=2 / b_adapt=2 / b_bias=0 / direct=3 / weightb=1 / open_gop=0 / weightp=2 / keyint=250 / keyint_min=23 / scenecut=40 / intra_refresh=0 / rc_lookahead=50 / rc=crf / mbtree=1 / crf=18.0 / qcomp=0.60 / qpmin=0 / qpmax=69 / qpstep=4 / ip_ratio=1.40 / aq=1:1.00\r\nDefault : Yes\r\nForced : No\r\nColor range : Limited\r\nMatrix coefficients : BT.709\r\n\r\nAudio\r\nID : 2\r\nFormat : AC-3\r\nFormat/Info : Audio Coding 3\r\nMode extension : CM (complete main)\r\nFormat settings, Endianness : Big\r\nCodec ID : A_AC3\r\nDuration : 58mn 13s\r\nBit rate mode : Constant\r\nBit rate : 384 Kbps\r\nChannel(s) : 6 channels\r\nChannel positions : Front: L C R, Side: L R, LFE\r\nSampling rate : 48.0 KHz\r\nFrame rate : 31.250 fps (1536 spf)\r\nCompression mode : Lossy\r\nStream size : 160 MiB (13%)\r\nDefault : Yes\r\nForced : No",
  "parsed": {
    "xt": "urn:btih:18523df9d2e670ba0bcbe074cf0510bfa08d2c59",
    "dn": "Game of Thrones S06E08 720p HDTV x264-AVS",
    "tr": [
      "udp://exodus.desync.com:6969",
      "udp://open.demonii.com:1337",
      "udp://tracker.coppersurfer.tk:6969",
      "udp://tracker.leechers-paradise.org:6969",
      "udp://zer0day.ch:1337"
    ],
    "infoHash": "18523df9d2e670ba0bcbe074cf0510bfa08d2c59",
    "infoHashBuffer": {
      "type": "Buffer",
      "data": [
        24,
        82,
        61,
        249,
        210,
        230,
        112,
        186,
        11,
        203,
        224,
        116,
        207,
        5,
        16,
        191,
        160,
        141,
        44,
        89
      ]
    },
    "name": "Game of Thrones S06E08 720p HDTV x264-AVS",
    "announce": [
      "udp://exodus.desync.com:6969",
      "udp://open.demonii.com:1337",
      "udp://tracker.coppersurfer.tk:6969",
      "udp://tracker.leechers-paradise.org:6969",
      "udp://zer0day.ch:1337"
    ],
    "urlList": []
  },
  "previous": 261,
  "peers": 100,
  "last_updated": "2016-12-26T17:32:03.284Z"
}